
        <svg xmlns="http://www.w3.org/2000/svg" xmlns:xlink="http://www.w3.org/1999/xlink" version="1.1" width="3300" height="3036.11744304724" viewBox="0 0 3300 3036.11744304724">
			
			<g transform="scale(15) translate(10, 10)">
				<defs id="SvgjsDefs2449"/><g id="SvgjsG2450" featureKey="nameFeature-0" transform="matrix(6.294209003448486,0,0,6.294209003448486,-6.412540216840041,-69.35783973194195)" fill="#fff"><path d="M2.0392 22.041 c-0.6728 0 -1.0204 -0.59284 -1.0204 -1.0257 l0.0048048 -4.2644 c0.00078124 -0.5624 0.21476 -0.934 0.70156 -1.2156 l7.5612 -4.3704 c0.15359 -0.092384 0.3332 -0.14559 0.5252 -0.14559 c0.5632 0 1.02 0.4568 1.02 1.02 c0 0.38398 -0.21238 0.7184 -0.52596 0.8924 l-7.2416 4.186 l0 2.1336 l13.814 -7.9848 c0.24359 -0.14078 0.4728 -0.21117 0.70204 -0.21117 s0.45844 0.070392 0.70204 0.21117 l3.5008 2.0236 c0.4872 0.2816 0.7024 0.6532 0.702 1.2156 l-0.004414 4.2688 c0 0.6728 -0.5892 1.0208 -1.022 1.0208 c-0.1732 0 -0.3484 -0.043984 -0.5088 -0.1368 l-3.3692 -1.9512 l-3.3588 1.9416 c-0.1532 0.092384 -0.33281 0.14559 -0.5248 0.14559 c-0.5632 0 -1.02 -0.4568 -1.02 -1.02 c0 -0.38398 0.21238 -0.7184 0.52596 -0.8924 l3.676 -2.1248 c0.24359 -0.14078 0.4728 -0.21117 0.70204 -0.21117 s0.45844 0.070392 0.70204 0.21117 l2.162 1.2496 l0 -2.1336 l-2.864 -1.6556 l-15.029 8.686 c-0.15559 0.089608 -0.33238 0.13723 -0.512 0.13723 z M9.8132 39.99953124 c-0.19199 0 -0.37195 -0.052772 -0.52516 -0.14516 l-3.6772 -2.1256 c-0.4868 -0.2816 -0.7012 -0.6532 -0.7012 -1.2156 l0 -11.481 l-2.3388 1.352 c-0.1532 0.092384 -0.33281 0.14559 -0.5248 0.14559 c-0.5632 0 -1.02 -0.4568 -1.02 -1.02 c0 -0.38398 0.21558 -0.71276 0.52596 -0.8924 l3.8624 -2.2344 c0.15559 -0.089608 0.33238 -0.13723 0.512 -0.13723 c0.5504 0 1.0184 0.452 1.0184 1.0196 l0.004414 12.881 l3.358 1.9408 c0.31359 0.17398 0.52596 0.5084 0.52596 0.8924 c0 0.5632 -0.4568 1.02 -1.02 1.02 z M9.8128 35.51 c-0.5632 0 -1.02 -0.4568 -1.02 -1.02 l0 -13.47 c0 -0.5632 0.4568 -1.02 1.02 -1.02 s1.02 0.4568 1.02 1.02 l0 13.47 c0 0.5632 -0.4568 1.02 -1.02 1.02 z M13.697 37.7552 c-0.5632 0 -1.02 -0.4564 -1.02 -1.0196 l0 -13.248 c0 -0.5624 0.21442 -0.934 0.7016 -1.2156 l3.6772 -2.1256 c0.15359 -0.092384 0.3332 -0.14559 0.5252 -0.14559 c0.5632 0 1.02 0.4568 1.02 1.02 c0 0.38398 -0.21238 0.7184 -0.52596 0.8924 l-3.358 1.9408 l0 12.882 c0 0.5632 -0.4568 1.02 -1.02 1.02 z M19.801599999999997 28.785 c-0.4868 -0.2816 -0.69996 -0.65284 -0.69996 -1.2152 l0 -4.0468 c0 -0.5624 0.21442 -0.934 0.7012 -1.2156 l3.6772 -2.1256 c0.15359 -0.092384 0.3332 -0.14559 0.5252 -0.14559 c0.5632 0 1.02 0.4568 1.02 1.02 c0 0.38398 -0.21238 0.7184 -0.52596 0.8924 l-3.358 1.9408 l0 3.3128 l2.864 1.6552 l3.3684 -1.9488 c0.15559 -0.089608 0.33238 -0.13723 0.512 -0.13723 c0.5504 0 1.0184 0.452 1.0184 1.0196 l0.004414 4.268 c0 0.5624 -0.2148 0.934 -0.7016 1.2156 l-3.6772 2.1256 c-0.15359 0.092384 -0.3332 0.14559 -0.5252 0.14559 c-0.5632 0 -1.02 -0.4568 -1.02 -1.02 c0 -0.38398 0.21238 -0.7184 0.52596 -0.8924 l3.358 -1.9408 l0 -2.1336 l-2.162 1.2496 c-0.24359 0.14078 -0.4728 0.21117 -0.70204 0.21117 s-0.45844 -0.070392 -0.70204 -0.21117 z M22.9852 25.546 c0 -0.38398 0.21277 -0.71884 0.52636 -0.8928 l3.676 -2.1248 c0.24359 -0.14078 0.4728 -0.21117 0.70204 -0.21117 s0.45844 0.070392 0.70204 0.21117 l2.162 1.2496 l0 -2.7224 c0 -0.5632 0.4568 -1.02 1.02 -1.02 s1.0204 0.4568 1.0204 1.02 l-0.004414 4.4904 c0 0.6728 -0.5892 1.0208 -1.022 1.0208 c-0.1732 0 -0.3484 -0.043984 -0.50916 -0.1368 l-3.3692 -1.9512 l-3.3588 1.9416 c-0.15359 0.092384 -0.3332 0.14559 -0.5252 0.14559 c-0.5632 0 -1.02 -0.4568 -1.02 -1.02 z M31.772999999999996 29.016 c0.5632 0 1.0205 0.4568 1.0205 1.02 l0 4.2684 c0 0.5624 -0.21442 0.934 -0.7016 1.2116 l-7.3844 4.2724 c-0.24359 0.14078 -0.4728 0.21117 -0.70204 0.21117 s-0.45844 -0.070392 -0.70204 -0.21117 l-3.5008 -2.0236 c-0.4868 -0.2816 -0.7012 -0.6532 -0.7012 -1.2156 l0 -4.2684 c0 -0.5632 0.4568 -1.02 1.02 -1.02 s1.02 0.4568 1.02 1.02 l0 3.9016 l2.864 1.6556 l6.7476 -3.9004 l0 -3.9016 c0 -0.5632 0.4568 -1.02 1.02 -1.02 z"/></g>
			</g>
		</svg>
	